<svg xmlns="http://www.w3.org/2000/svg" width="64" height="64" viewBox="0 0 64 64">
  <defs>
    <linearGradient id="g" x1="0" x2="1" y1="0" y2="1">
      <stop offset="0%" stop-color="#ffffff" stop-opacity="0.95"/>
      <stop offset="100%" stop-color="#e9e2d9" stop-opacity="0.95"/>
    </linearGradient>
    <filter id="s" x="-50%" y="-50%" width="200%" height="200%">
      <feDropShadow dx="0" dy="2" stdDeviation="2" flood-color="#000" flood-opacity="0.18"/>
    </filter>
  </defs>
  <rect x="2" y="2" width="60" height="60" rx="14" fill="url(#g)"/>
  <g filter="url(#s)">
    <path d="M18 18h13.5c4.8 0 8 3.1 8 7.3 0 3.5-2.1 6.2-5.2 7v.2c3.8.7 6.4 3.6 6.4 7.7 0 5.1-4 8.8-10.3 8.8H18V18zm8.6 12.3c2.2 0 3.6-1.2 3.6-3.1s-1.4-3.1-3.6-3.1H26V30h.6zm.8 16.1c2.8 0 4.6-1.4 4.6-3.7 0-2.3-1.8-3.7-4.6-3.7H26v7.4h1.4z" fill="#0f0f10" fill-opacity="0.9"/>
    <path d="M42 18h4.5v28.2c0 2.4 1.1 3.6 3.1 3.6 1 0 1.9-.2 2.4-.5l1.2 3.9c-1.1.7-2.9 1.2-5 1.2-4.2 0-6.2-2.5-6.2-7V18z" fill="#0f0f10" fill-opacity="0.9"/>
  </g>
</svg>
